<?xml version="1.0" ?><!DOCTYPE svg  PUBLIC '-//W3C//DTD SVG 1.1//EN'  'http://www.w3.org/Graphics/SVG/1.1/DTD/svg11.dtd'><svg enable-background="new 0 0 1024 1024" height="1024px" id="Layer_1" version="1.1" viewBox="0 0 1024 1024" width="1024px" xml:space="preserve" xmlns="http://www.w3.org/2000/svg" xmlns:xlink="http://www.w3.org/1999/xlink"><g><path clip-rule="evenodd" d="M345.114,577.957c-30.72,23.406-60.7,46.237-90.663,69.088    c-59.987,45.753-120.068,91.384-179.826,137.437c-7.932,6.111-14.316,6.845-22.936,1.812    c-12.293-7.176-25.262-13.198-37.999-19.602c-6.807-3.422-9.695-8.685-9.69-16.38c0.101-158.855-0.012-317.711,0.465-476.567    c0.015-5.197,4.539-12.4,9.09-15.184c13.567-8.304,28.245-14.775,42.391-22.151c7.721-4.026,13.51-0.578,19.469,3.987    c49.376,37.81,98.813,75.541,148.249,113.274c40.505,30.916,81.034,61.8,122.024,93.059c2.979-2.791,5.713-5.265,8.352-7.835    C501.859,294.876,649.713,150.897,797.352,6.693c7.488-7.313,14.082-8.348,23.568-4.49    c62.539,25.429,125.33,50.234,187.785,75.868c4.607,1.892,7.924,8.313,10.479,13.325c1.525,2.993,0.445,7.343,0.445,11.083    c0.01,273.15,0.008,546.3,0.01,819.451c0,20.281-0.023,20.215-19.381,27.952c-59.543,23.801-119.17,47.399-178.496,71.729    c-10.449,4.282-17.154,2.901-25.148-4.894c-146.311-142.644-292.865-285.033-439.38-427.466    C353.591,585.711,349.805,582.32,345.114,577.957z M771.223,707.559c0-131.221,0-260.063,0-390.557    c-87.355,65.362-173.346,129.704-260.054,194.582C598.178,577.153,684.064,641.88,771.223,707.559z M225.675,511.731    C181.97,472.696,139.4,434.675,96.002,395.914c0,78.679,0,155.331,0,233.493C139.845,589.62,182.285,551.105,225.675,511.731z" fill-rule="evenodd"/></g></svg>