<?xml version="1.0" ?><!DOCTYPE svg  PUBLIC '-//W3C//DTD SVG 1.1//EN'  'http://www.w3.org/Graphics/SVG/1.1/DTD/svg11.dtd'><svg height="512px" style="enable-background:new 0 0 512 512;" version="1.1" viewBox="0 0 512 512" width="512px" xml:space="preserve" xmlns="http://www.w3.org/2000/svg" xmlns:xlink="http://www.w3.org/1999/xlink"><g id="comp_x5F_187-js"><g><path d="M26.002,26.001v459.998h459.996V26.001H26.002z M276.331,384.759c0,44.767-26.286,65.2-64.586,65.2    c-34.601,0-54.623-17.865-64.892-39.529l35.218-21.255c6.777,12.013,12.938,22.177,27.826,22.177    c14.169,0,23.207-5.544,23.207-27.208V237.21h43.227V384.759L276.331,384.759z M378.598,449.959    c-40.147,0-66.124-19.099-78.754-44.151l35.219-20.332c9.241,15.095,21.356,26.286,42.611,26.286    c17.866,0,29.364-8.932,29.364-21.355c0-14.787-11.704-20.021-31.52-28.75l-10.781-4.62c-31.214-13.246-51.853-29.983-51.853-65.2    c0-32.447,24.745-57.09,63.248-57.09c27.518,0,47.232,9.549,61.402,34.603l-33.679,21.562    c-7.392-13.246-15.401-18.481-27.825-18.481c-12.63,0-20.639,8.01-20.639,18.481c0,12.938,8.009,18.176,26.594,26.285l10.78,4.621    c36.759,15.71,57.397,31.832,57.397,67.974C450.164,428.602,419.565,449.959,378.598,449.959L378.598,449.959z"/></g></g><g id="Layer_1"/></svg>