<svg fill="#000000" xmlns="http://www.w3.org/2000/svg"  viewBox="0 0 50 50" width="500px" height="500px"><path d="M 26.185547 3.9726562 C 25.827645 3.9709009 25.422916 3.9749295 24.998047 3.9785156 C 24.148308 3.985688 23.285389 4 23 4 C 11.413593 4 2 13.413593 2 25 C 2 36.586407 11.413593 46 23 46 L 27 46 C 38.586142 46 48 36.586134 48 25 C 48 13.413866 38.586142 4 27 4 C 26.996746 3.9997516 26.991559 4.0002441 26.988281 4 C 26.763502 3.9832625 26.502563 3.9742111 26.185547 3.9726562 z M 27 6 C 35.762208 6 43.049641 11.943168 45.251953 20 L 8.7480469 20 C 10.950359 11.943168 18.237792 6 27 6 z M 15.025391 7.7675781 C 9.5767945 11.563794 6 17.865276 6 25 C 6 32.134724 9.5767945 38.436206 15.025391 42.232422 C 8.5169941 39.219913 4 32.652446 4 25 C 4 17.347554 8.5169941 10.780087 15.025391 7.7675781 z M 8.3007812 22 L 45.699219 22 C 45.803634 22.655648 45.864688 23.323636 45.900391 24 L 8.0996094 24 C 8.1353124 23.323636 8.1963665 22.655648 8.3007812 22 z M 8.0996094 26 L 45.900391 26 C 45.864691 26.676364 45.803631 27.344352 45.699219 28 L 8.3007812 28 C 8.1963663 27.344352 8.1353123 26.676364 8.0996094 26 z M 8.7480469 30 L 45.251953 30 C 43.049641 38.056832 35.762208 44 27 44 C 18.237792 44 10.950359 38.056832 8.7480469 30 z"/></svg>