<?xml version="1.0" ?><!DOCTYPE svg  PUBLIC '-//W3C//DTD SVG 1.1//EN'  'http://www.w3.org/Graphics/SVG/1.1/DTD/svg11.dtd'><svg enable-background="new 0 0 56.693 56.693" height="56.693px" id="Layer_1" version="1.1" viewBox="0 0 56.693 56.693" width="56.693px" xml:space="preserve" xmlns="http://www.w3.org/2000/svg" xmlns:xlink="http://www.w3.org/1999/xlink"><g><polygon enable-background="new    " points="16.356,9.799 18.382,9.799 18.382,12.018 20.598,12.018 20.598,5.391 18.382,5.391    18.382,7.581 16.356,7.581 16.356,5.391 14.141,5.391 14.141,12.018 16.356,12.018  "/><polygon enable-background="new    " points="23.51,12.018 25.725,12.018 25.725,7.59 27.674,7.59 27.674,5.391 21.561,5.391    21.561,7.59 23.51,7.59  "/><polygon enable-background="new    " points="30.812,8.735 32.338,11.09 32.375,11.09 33.898,8.735 33.898,12.018 36.105,12.018    36.105,5.391 33.795,5.391 32.375,7.723 30.955,5.391 28.646,5.391 28.646,12.018 30.812,12.018  "/><polygon enable-background="new    " points="42.537,9.829 39.422,9.829 39.422,5.391 37.207,5.391 37.207,12.018 42.537,12.018     "/><path d="M10.949,14.926l3.168,35.532l14.221,3.947L42.57,50.46l3.174-35.534H10.949z M38.871,26.546   H28.346h-6.152l0.398,4.463h5.754h10.129l-1.195,13.383l-8.934,2.475l-0.006,0.002l-8.928-2.477l-0.623-7h4.374l0.324,3.631   l4.854,1.312l0.006-0.002l0,0l4.859-1.312l0.506-5.652h-5.365l0,0h-9.739L17.431,22.19h10.915H39.26L38.871,26.546z" enable-background="new    "/></g></svg>