<?xml version="1.0" encoding="utf-8"?>
<!-- Generator: Adobe Illustrator 19.0.0, SVG Export Plug-In . SVG Version: 6.00 Build 0)  -->
<svg version="1.1" id="Layer_1" xmlns="http://www.w3.org/2000/svg" xmlns:xlink="http://www.w3.org/1999/xlink" x="0px" y="0px"
	 viewBox="0 0 500 500" style="enable-background:new 0 0 500 500;" xml:space="preserve">
<style type="text/css">
	.st0{fill:#EE2722;}
</style>
<g id="XMLID_1_">
	<path id="XMLID_19_" class="st0" d="M327.1,250c0-0.3-0.1-0.7-0.4-0.9c-0.3-0.2-0.6-0.3-0.9-0.3h-1.5l-11.6,26.4l-3-14.1
		c-0.2-1.2-1.2-2.1-2.3-2h-2l-9.2,16l0.1-24.9c0-0.3-0.1-0.7-0.4-1c-0.3-0.2-0.6-0.3-0.9-0.3h-2v30h2.5v0l0.1,0
		c0.7,0,1.4-0.2,1.9-0.6c0.5-0.4,0.9-0.8,1.3-1.4l8-14.3l3.3,16.4h2.1h0.1c1.4,0,2.5-0.8,3.1-2.2l11.6-26
		C327,250.4,327.1,250.2,327.1,250 M432.5,248.8h-12.4c-5.8,0-6.4,4.8-6.4,7c0,2.4,1.7,4.2,2.6,5l8.4,8.2c1,1,1.5,2.1,1.5,3.2
		c0,1.8-1.4,3.3-3.6,3.3l-11,0c-0.4,0.1-0.7,0.5-0.7,0.9h0l0,0v2.2H423c5.8,0,6.4-4.8,6.4-7l0,0c0-3.1-2.8-5.5-2.9-5.5l-8-7.9
		c-1-1-1.6-2-1.6-3.1c0-1.8,1.4-3.3,3.6-3.3l11.1,0l0,0.1l0-0.1c0.4-0.1,0.7-0.5,0.7-0.9v0C432.5,251,432.5,249.2,432.5,248.8
		 M344.2,251.8c-5.5-0.3-11.8,2.9-13.9,11.7c-2.1,8.6,1.8,12.7,7.2,13.4l0.6,0c5.6,0.3,11.5-2.9,13.6-11.7
		C353.7,256.7,349.7,252.3,344.2,251.8 M354.9,265.5c-2,8.5-8.2,15.2-18,14.5v0c-9.1-1.1-11.7-9.1-9.8-16.8
		c2.1-8.5,8.2-15.2,17.9-14.5v0C354,249.8,356.7,257.8,354.9,265.5 M409.4,249.1c-0.3-0.2-0.5-0.2-0.8-0.2h-1.5L391.7,262l2.1-11.7
		c0.1-0.6-0.2-1.1-0.4-1.3c-0.3-0.2-0.6-0.3-0.9-0.3h-1.5l-5.6,30h3.3l2.4-13.3l12.2,13.3h1.5c0.3,0,0.6,0,0.8-0.2
		c0.3-0.2,0.4-0.5,0.4-0.8c0-0.5-0.4-1.1-0.4-1.1L394,264.1l15.4-13.1c0,0,0.4-0.4,0.4-1.1C409.8,249.6,409.7,249.3,409.4,249.1
		 M378.5,253.3c-0.6-0.6-1.5-0.9-2.9-1.1c-0.4-0.1-1-0.1-1.7-0.2c-1.7-0.1-6.8,0-8.4,0l-2,10.9c1.2,0,2.5,0,3.5,0
		c2.7,0,5.2-0.1,7.1-0.6C378.7,261.1,381.1,255.8,378.5,253.3 M381.5,251.5c1.3,1.5,1.4,4.3,1.1,6.1c-0.5,2.1-2.5,7.5-10,8.1
		l6.4,10.9c0,0,0.4,0.7,0.4,1.1c0,0.3-0.1,0.6-0.4,0.8c-0.3,0.2-0.5,0.2-0.8,0.2h-1.7l-7.5-12.9l-6,0l-2.3,12.9h-3.3l5.6-30h7.7
		C375.2,248.8,379.2,248.9,381.5,251.5 M159.9,255.2c-0.4,2.4,0.4,5.2,3.1,7.1l9.6,6.7c1,0.7,1.5,1.2,1.4,2
		c-0.2,1.1-0.8,1.6-2.8,1.6H160c-1.2,0-1.8,0.6-2.1,1.9v4.2h13c5.7,0,8.6-3.4,9.1-7c0.5-3.4-0.6-5.8-2.8-7.3l-10.2-7.2
		c-0.8-0.6-1-0.9-1-1.3c0.1-0.7,0.8-1,1.9-1h11.6c1.4,0,2.2-1.5,2.5-2.9v-3.2h-15.4C163.4,248.7,160.5,251.7,159.9,255.2
		 M275.8,248.7h-16.1l-0.1,0.5c-0.4,2-0.2,4.4,3,4.4h11.9c4.7,0,6.5,3.4,5.4,9.8c-1.1,5.9-4.2,10.4-9.1,10.4h-6.5l3.1-16.9H262
		c-0.7,0-1.3,0.5-1.3,1l-3.8,20.7h12.6c9.3,0,15.8-4.4,17.8-15.5C288.9,254.6,285.4,248.7,275.8,248.7 M237.5,273.8h-12.7l4.4-24.1
		c0.1-0.5-0.3-1-0.9-1h-5.6l-5.5,30h21.1l0.5-3C239.2,274.3,238.7,273.8,237.5,273.8 M253.4,248.7h-5.6l-5.5,30h6.7l5.3-29
		C254.4,249.2,254,248.7,253.4,248.7 M201.6,253.8c-6.1,0-9.3,3.5-10.4,10.5c-1.1,7,0.9,10.5,7,10.5c6.1,0,9.3-3.5,10.4-10.5
		C209.7,257.3,207.7,253.8,201.6,253.8 M215.2,264.3c-1.4,8.5-7.2,15.6-17.9,15.6c-10.7,0-14.1-7.1-12.7-15.6
		c1.4-8.5,7.2-15.6,17.9-15.6C213.1,248.7,216.6,255.8,215.2,264.3 M137.3,238.2c-6.4-1-17.8-1.4-21.6,4.5c-3,4.6,2.7,10.9,7.8,17
		c4.1,4.9,8.7,9.6,6.8,12.3c-1.5,2.2-11.1,2.2-14.5,2.4c-4,0.2-9.8,0.2-10.9,0.8c-0.9,0.5-1.4,2,2,2.6c2.7,0.5,9.3,1.5,16.2,1.5
		c7.2,0,14.7-1.2,16.4-6.7c1.3-4.5-3.2-9.3-7.3-14.1c-4.4-5.3-8.8-9.1-8.5-12.9c0.3-2.9,6-3.1,15.6-3.3c2,0,5.9-0.1,5.2-1.7
		C143.9,239.3,140.9,238.8,137.3,238.2 M108,251.5c-4.1-2.8-11.4-3.7-17.4-3.4c-5.3,0.3-14.5,2-14.2,3.7c0.3,1.8,6.1,1.3,8.8,1.3
		c5.9,0,15.1,0.4,16.6,4.1c3.2,8.1-18.2,22.7-22.8,21.3c-2.1-0.6,4.2-11.2,6.5-15c1.3-2.3,3.4-5.9,1.7-6.1c-2-0.3-4.1,3.1-5.5,5
		c-3.8,5.3-7.7,11-10.8,16.9c-1,1.8-4.2,7.3-3.1,8c1,0.7,5.9-0.3,12.1-2.7c19.6-7.7,28.4-17.8,30.7-26.2
		C111.4,255.4,110,252.9,108,251.5 M93.4,215.9c-0.4-1.3,6.1-3,13.3-3.3c7.2-0.3,15.7,1.1,17.3,5.9c2.6,7.8-10.6,19.2-22.1,24.7
		c-2.8,1.4-4.5,1.7-5.2,1.6c-0.7-0.1-0.8-0.7-0.6-1.2c0.4-0.8,2.3-2.5,4.7-4.3c12.9-9.5,17.2-16.4,14.7-19.2
		c-1.6-1.8-8.1-3.1-15-3.1C98.8,217.1,93.9,217.5,93.4,215.9"/>
</g>
</svg>
